<svg width="24" height="24" viewBox="0 0 24 24" fill="none" xmlns="http://www.w3.org/2000/svg">
<g clip-path="url(#clip0_12821_473369)">
<path fill-rule="evenodd" clip-rule="evenodd" d="M6.87563 11.9978C6.87563 9.16007 9.16453 6.87116 12.0022 6.87116C14.8399 6.87116 17.1288 9.16007 17.1288 11.9978C17.1288 14.8355 14.8399 17.1244 12.0022 17.1244C9.16453 17.1244 6.87563 14.8355 6.87563 11.9978ZM8.66927 11.9978C8.66927 13.836 10.1684 15.3307 12.0022 15.3307C13.836 15.3307 15.3352 13.836 15.3352 11.9978C15.3352 10.1595 13.8405 8.66481 12.0022 8.66481C10.164 8.66481 8.66927 10.1595 8.66927 11.9978ZM17.3385 7.85722C17.9989 7.85722 18.5343 7.32627 18.5343 6.66146C18.5343 6.00112 17.9989 5.4657 17.3385 5.4657C16.6782 5.4657 16.1428 6.00112 16.1428 6.66146C16.1428 7.32181 16.6737 7.85722 17.3385 7.85722ZM20.3146 3.68544C21.488 4.85443 21.8539 6.27328 21.9297 7.87507C22.0234 9.52593 22.0234 14.4696 21.9297 16.1205C21.8494 17.7223 21.4835 19.1411 20.3146 20.3101C19.1456 21.4835 17.7267 21.8494 16.1249 21.9253C14.4741 22.019 9.52593 22.019 7.87507 21.9253C6.27328 21.8449 4.8589 21.4791 3.68544 20.3101C2.51199 19.1411 2.14612 17.7223 2.07027 16.1205C1.97658 14.4696 1.97658 9.52147 2.07027 7.87061C2.15059 6.26882 2.51199 4.84997 3.68544 3.68098C4.8589 2.51199 6.27775 2.14612 7.87507 2.07027C9.52593 1.97658 14.4741 1.97658 16.1249 2.07027C17.7267 2.15059 19.1456 2.51645 20.3146 3.68544Z" fill="#474747"/>
</g>
<defs>
<clipPath id="clip0_12821_473369">
<rect width="24" height="24" fill="white"/>
</clipPath>
</defs>
</svg>
