<?xml version="1.0" encoding="UTF-8"?>
<svg id="Layer_1" xmlns="http://www.w3.org/2000/svg" version="1.1" viewBox="0 0 28 28">
  <!-- Generator: Adobe Illustrator 29.1.0, SVG Export Plug-In . SVG Version: 2.1.0 Build 54)  -->
  <defs>
    <style>
      .st0 {
        fill: #474747;
      }

      .st1 {
        fill: #fff;
      }
    </style>
  </defs>
  <circle class="st0" cx="14" cy="13.8" r="13"/>
  <g>
    <path class="st1" d="M21.9,14.1c-.4-2.3-1.9-3.2-4.1-3.1-1.2,0-2.3.7-2.9,1.7,0-.5,0-1,0-1.5-1.1,0-2.1,0-3.2,0,0,3.6,0,7.1,0,10.7,1.1,0,2.2,0,3.3,0,0-1.6-.2-5.5.2-6.7.5-1.7,2.8-1.7,3.4-.3.4,1.1,0,5.5.2,7,1.1,0,2.2,0,3.3,0,0-2.1.2-6.2-.1-7.9Z"/>
    <path class="st1" d="M6.2,22c1.1,0,2.2,0,3.3,0,0-3.6,0-7.1,0-10.7-1.1,0-2.2,0-3.3,0,0,3.6,0,7.1,0,10.7Z"/>
    <path class="st1" d="M7.6,6c-2.3.3-2.2,3.9.4,3.8,2.6,0,2.4-4.2-.4-3.8Z"/>
  </g>
</svg>