<svg width="30" height="30" viewBox="0 0 30 30" fill="none" xmlns="http://www.w3.org/2000/svg">
<g clip-path="url(#clip0_12821_473375)">
<g clip-path="url(#clip1_12821_473375)">
<path d="M26.9776 8.98816C26.6901 7.91036 25.8429 7.06152 24.7673 6.77345C22.8177 6.25 15 6.25 15 6.25C15 6.25 7.18232 6.25 5.23266 6.77345C4.15706 7.06156 3.30992 7.91036 3.0224 8.98816C2.5 10.9417 2.5 15.0177 2.5 15.0177C2.5 15.0177 2.5 19.0936 3.0224 21.0472C3.30992 22.125 4.15706 22.9385 5.23266 23.2265C7.18232 23.75 15 23.75 15 23.75C15 23.75 22.8177 23.75 24.7673 23.2265C25.8429 22.9385 26.6901 22.125 26.9776 21.0472C27.5 19.0936 27.5 15.0177 27.5 15.0177C27.5 15.0177 27.5 10.9417 26.9776 8.98816ZM13.0652 18.3661C12.7874 18.5234 12.4432 18.3227 12.4432 18.0035V12.0319C12.4432 11.7126 12.7874 11.512 13.0652 11.6693L18.3371 14.6552C18.6189 14.8148 18.6188 15.2207 18.3371 15.3803L13.0652 18.3661Z" fill="#474747"/>
</g>
</g>
<defs>
<clipPath id="clip0_12821_473375">
<rect width="30" height="30" fill="white"/>
</clipPath>
<clipPath id="clip1_12821_473375">
<rect width="25" height="25" fill="white" transform="translate(2.5 2.5)"/>
</clipPath>
</defs>
</svg>
